<?xml version="1.0" encoding="utf-8"?>
<!-- Generator: Adobe Illustrator 24.0.1, SVG Export Plug-In . SVG Version: 6.00 Build 0)  -->
<!DOCTYPE svg PUBLIC "-//W3C//DTD SVG 1.1//EN" "http://www.w3.org/Graphics/SVG/1.1/DTD/svg11.dtd" [
	<!ENTITY ns_extend "http://ns.adobe.com/Extensibility/1.0/">
	<!ENTITY ns_ai "http://ns.adobe.com/AdobeIllustrator/10.0/">
	<!ENTITY ns_graphs "http://ns.adobe.com/Graphs/1.0/">
	<!ENTITY ns_vars "http://ns.adobe.com/Variables/1.0/">
	<!ENTITY ns_imrep "http://ns.adobe.com/ImageReplacement/1.0/">
	<!ENTITY ns_sfw "http://ns.adobe.com/SaveForWeb/1.0/">
	<!ENTITY ns_custom "http://ns.adobe.com/GenericCustomNamespace/1.0/">
	<!ENTITY ns_adobe_xpath "http://ns.adobe.com/XPath/1.0/">
]>
<svg version="1.1" id="Layer_1" xmlns:x="&ns_extend;" xmlns:i="&ns_ai;" xmlns:graph="&ns_graphs;"
	 xmlns="http://www.w3.org/2000/svg" xmlns:xlink="http://www.w3.org/1999/xlink" x="0px" y="0px" viewBox="0 0 120 23.5"
	 style="enable-background:new 0 0 120 23.5;" xml:space="preserve">
<style type="text/css">
	.st0{fill:#FFFFFF;}
</style>
<metadata>
	<sfw  xmlns="&ns_sfw;">
		<slices></slices>
		<sliceSourceBounds  bottomLeftOrigin="true" height="19.2" width="115.7" x="2.1" y="-21.4"></sliceSourceBounds>
	</sfw>
</metadata>
<g>
	<g>
		<polygon class="st0" points="46.5,2.1 40.9,2.1 36.1,8.2 31.3,2.1 25.7,2.1 33.3,11.8 25.7,21.4 31.4,21.4 36.1,15.4 40.8,21.4 
			46.5,21.4 38.9,11.8 		"/>
		<polygon class="st0" points="117.8,16.8 102.1,16.8 102.1,2.1 97.4,2.1 97.4,21.3 117.8,21.3 		"/>
		<g>
			<path class="st0" d="M52,2.1h18.1v4.5H55.2c-0.4,0-0.7,0.3-0.7,0.7v8.8c0,0.4,0.3,0.7,0.7,0.7h14.9v4.5H52c-1.2,0-2.2-1-2.2-2.1
				v-15C49.8,3.1,50.8,2.1,52,2.1"/>
			<g>
				<g>
					<rect x="2.1" y="9.5" class="st0" width="20.3" height="4.5"/>
					<g>
						<rect x="2.1" y="2.1" class="st0" width="20.3" height="4.5"/>
						<g>
							<rect x="2.1" y="16.8" class="st0" width="20.3" height="4.5"/>
						</g>
					</g>
				</g>
			</g>
		</g>
		<g>
			<rect x="73.6" y="9.5" class="st0" width="20.3" height="4.5"/>
			<g>
				<rect x="73.6" y="2.1" class="st0" width="20.3" height="4.5"/>
				<rect x="73.6" y="16.8" class="st0" width="20.3" height="4.5"/>
			</g>
		</g>
	</g>
</g>
</svg>
